<mxfile host="Electron" agent="Mozilla/5.0 (Windows NT 10.0; Win64; x64) AppleWebKit/537.36 (KHTML, like Gecko) draw.io/24.7.17 Chrome/128.0.6613.36 Electron/32.0.1 Safari/537.36" version="24.7.17">
  <diagram name="第 1 页" id="qhCdKy0ymml9zx-lJv5D">
    <mxGraphModel dx="1750" dy="1048" grid="1" gridSize="10" guides="1" tooltips="1" connect="1" arrows="1" fold="1" page="1" pageScale="1" pageWidth="827" pageHeight="1169" math="0" shadow="0">
      <root>
        <mxCell id="0" />
        <mxCell id="1" parent="0" />
        <mxCell id="u2p_eBqBSsfcS5At9RNj-5" style="rounded=0;orthogonalLoop=1;jettySize=auto;html=1;exitX=0.5;exitY=1;exitDx=0;exitDy=0;entryX=0.5;entryY=0;entryDx=0;entryDy=0;" parent="1" source="u2p_eBqBSsfcS5At9RNj-1" target="u2p_eBqBSsfcS5At9RNj-3" edge="1">
          <mxGeometry relative="1" as="geometry" />
        </mxCell>
        <mxCell id="u2p_eBqBSsfcS5At9RNj-1" value="IDLE" style="ellipse;whiteSpace=wrap;html=1;" parent="1" vertex="1">
          <mxGeometry x="300" y="160" width="120" height="80" as="geometry" />
        </mxCell>
        <mxCell id="u2p_eBqBSsfcS5At9RNj-17" style="rounded=0;orthogonalLoop=1;jettySize=auto;html=1;exitX=0.5;exitY=0;exitDx=0;exitDy=0;entryX=0.5;entryY=1;entryDx=0;entryDy=0;" parent="1" source="u2p_eBqBSsfcS5At9RNj-2" target="u2p_eBqBSsfcS5At9RNj-1" edge="1">
          <mxGeometry relative="1" as="geometry" />
        </mxCell>
        <mxCell id="u2p_eBqBSsfcS5At9RNj-2" value="EXECUTE" style="ellipse;whiteSpace=wrap;html=1;" parent="1" vertex="1">
          <mxGeometry x="440" y="340" width="120" height="80" as="geometry" />
        </mxCell>
        <mxCell id="u2p_eBqBSsfcS5At9RNj-15" style="edgeStyle=orthogonalEdgeStyle;rounded=0;orthogonalLoop=1;jettySize=auto;html=1;exitX=1;exitY=0.5;exitDx=0;exitDy=0;entryX=0;entryY=0.5;entryDx=0;entryDy=0;" parent="1" source="u2p_eBqBSsfcS5At9RNj-3" target="u2p_eBqBSsfcS5At9RNj-2" edge="1">
          <mxGeometry relative="1" as="geometry" />
        </mxCell>
        <mxCell id="u2p_eBqBSsfcS5At9RNj-3" value="SETUP" style="ellipse;whiteSpace=wrap;html=1;" parent="1" vertex="1">
          <mxGeometry x="160" y="340" width="120" height="80" as="geometry" />
        </mxCell>
        <mxCell id="u2p_eBqBSsfcS5At9RNj-7" style="edgeStyle=orthogonalEdgeStyle;rounded=0;orthogonalLoop=1;jettySize=auto;html=1;exitX=0.5;exitY=0;exitDx=0;exitDy=0;entryX=1;entryY=0;entryDx=0;entryDy=0;curved=1;" parent="1" source="u2p_eBqBSsfcS5At9RNj-1" target="u2p_eBqBSsfcS5At9RNj-1" edge="1">
          <mxGeometry relative="1" as="geometry">
            <Array as="points">
              <mxPoint x="360" y="140" />
              <mxPoint x="420" y="140" />
              <mxPoint x="420" y="172" />
            </Array>
          </mxGeometry>
        </mxCell>
        <mxCell id="u2p_eBqBSsfcS5At9RNj-8" value="New_CMD==0" style="edgeLabel;html=1;align=center;verticalAlign=middle;resizable=0;points=[];" parent="u2p_eBqBSsfcS5At9RNj-7" vertex="1" connectable="0">
          <mxGeometry x="-0.0903" y="2" relative="1" as="geometry">
            <mxPoint x="56" y="12" as="offset" />
          </mxGeometry>
        </mxCell>
        <mxCell id="u2p_eBqBSsfcS5At9RNj-12" value="New_CMD==1" style="edgeLabel;html=1;align=center;verticalAlign=middle;resizable=0;points=[];" parent="1" vertex="1" connectable="0">
          <mxGeometry x="190" y="280" as="geometry" />
        </mxCell>
        <mxCell id="u2p_eBqBSsfcS5At9RNj-13" style="edgeStyle=orthogonalEdgeStyle;rounded=0;orthogonalLoop=1;jettySize=auto;html=1;exitX=0;exitY=1;exitDx=0;exitDy=0;entryX=0.5;entryY=1;entryDx=0;entryDy=0;curved=1;" parent="1" source="u2p_eBqBSsfcS5At9RNj-3" target="u2p_eBqBSsfcS5At9RNj-3" edge="1">
          <mxGeometry relative="1" as="geometry">
            <Array as="points">
              <mxPoint x="178" y="460" />
              <mxPoint x="220" y="460" />
            </Array>
          </mxGeometry>
        </mxCell>
        <mxCell id="u2p_eBqBSsfcS5At9RNj-14" value="ack_in_init==0" style="edgeLabel;html=1;align=center;verticalAlign=middle;resizable=0;points=[];" parent="1" vertex="1" connectable="0">
          <mxGeometry x="250" y="455" as="geometry">
            <mxPoint x="11" y="-5" as="offset" />
          </mxGeometry>
        </mxCell>
        <mxCell id="u2p_eBqBSsfcS5At9RNj-16" value="ack_in_init==1" style="edgeLabel;html=1;align=center;verticalAlign=middle;resizable=0;points=[];" parent="1" vertex="1" connectable="0">
          <mxGeometry x="330" y="400" as="geometry">
            <mxPoint x="11" y="-5" as="offset" />
          </mxGeometry>
        </mxCell>
        <mxCell id="u2p_eBqBSsfcS5At9RNj-18" value="complete==1" style="text;html=1;align=center;verticalAlign=middle;resizable=0;points=[];autosize=1;strokeColor=none;fillColor=none;" parent="1" vertex="1">
          <mxGeometry x="410" y="258" width="90" height="30" as="geometry" />
        </mxCell>
        <mxCell id="u2p_eBqBSsfcS5At9RNj-19" value="complete==0" style="text;html=1;align=center;verticalAlign=middle;resizable=0;points=[];autosize=1;strokeColor=none;fillColor=none;" parent="1" vertex="1">
          <mxGeometry x="530" y="430" width="90" height="30" as="geometry" />
        </mxCell>
        <mxCell id="u2p_eBqBSsfcS5At9RNj-20" style="edgeStyle=orthogonalEdgeStyle;rounded=0;orthogonalLoop=1;jettySize=auto;html=1;exitX=0;exitY=1;exitDx=0;exitDy=0;curved=1;" parent="1" target="u2p_eBqBSsfcS5At9RNj-2" edge="1">
          <mxGeometry relative="1" as="geometry">
            <mxPoint x="500" y="418" as="sourcePoint" />
            <mxPoint x="542" y="430" as="targetPoint" />
            <Array as="points">
              <mxPoint x="500" y="470" />
              <mxPoint x="542" y="470" />
            </Array>
          </mxGeometry>
        </mxCell>
      </root>
    </mxGraphModel>
  </diagram>
</mxfile>
